<svg width="24" height="28" viewBox="0 0 24 28" fill="none" xmlns="http://www.w3.org/2000/svg">
<path d="M19.05 5.87321C18.1331 4.84722 17.041 4.03372 15.8375 3.4801C14.634 2.92649 13.3431 2.64384 12.04 2.64862C6.58 2.64862 2.13 7.5797 2.13 13.63C2.13 15.5692 2.59 17.4529 3.45 19.1151L2.05 24.8108L7.3 23.2816C8.75 24.157 10.38 24.6224 12.04 24.6224C17.5 24.6224 21.95 19.6913 21.95 13.6411C21.95 10.7046 20.92 7.94538 19.05 5.87321ZM12.04 22.7608C10.56 22.7608 9.11 22.3175 7.84 21.4865L7.54 21.287L4.42 22.1956L5.25 18.827L5.05 18.4835C4.22755 17.0286 3.79092 15.3467 3.79 13.63C3.79 8.59916 7.49 4.49916 12.03 4.49916C14.23 4.49916 16.3 5.45213 17.85 7.18078C18.6176 8.02723 19.2259 9.03414 19.6396 10.1431C20.0533 11.2521 20.2642 12.4411 20.26 13.6411C20.28 18.6719 16.58 22.7608 12.04 22.7608ZM16.56 15.9348C16.31 15.8019 15.09 15.137 14.87 15.0373C14.64 14.9486 14.48 14.9043 14.31 15.1702C14.14 15.4473 13.67 16.0678 13.53 16.2451C13.39 16.4335 13.24 16.4556 12.99 16.3116C12.74 16.1786 11.94 15.8794 11 14.9486C10.26 14.2173 9.77 13.3197 9.62 13.0427C9.48 12.7656 9.6 12.6216 9.73 12.4775C9.84 12.3556 9.98 12.1562 10.1 12.0011C10.22 11.8459 10.27 11.724 10.35 11.5467C10.43 11.3583 10.39 11.2032 10.33 11.0702C10.27 10.9373 9.77 9.58538 9.57 9.03132C9.37 8.49943 9.16 8.56592 9.01 8.55484H8.53C8.36 8.55484 8.1 8.62132 7.87 8.89835C7.65 9.17538 7.01 9.84024 7.01 11.1921C7.01 12.544 7.9 13.8516 8.02 14.0289C8.14 14.2173 9.77 16.9875 12.25 18.1732C12.84 18.4613 13.3 18.6275 13.66 18.7494C14.25 18.96 14.79 18.9267 15.22 18.8602C15.7 18.7827 16.69 18.1954 16.89 17.5527C17.1 16.91 17.1 16.367 17.03 16.2451C16.96 16.1232 16.81 16.0678 16.56 15.9348Z" fill="#314E52"/>
</svg>
