<svg width="24" height="28" viewBox="0 0 24 28" fill="none" xmlns="http://www.w3.org/2000/svg">
<path d="M19.05 5.87327C18.1331 4.84728 17.0411 4.03378 15.8376 3.48016C14.634 2.92655 13.3431 2.6439 12.04 2.64868C6.58005 2.64868 2.13005 7.57976 2.13005 13.63C2.13005 15.5692 2.59005 17.453 3.45005 19.1152L2.05005 24.8108L7.30005 23.2817C8.75005 24.1571 10.38 24.6225 12.04 24.6225C17.5 24.6225 21.9501 19.6914 21.9501 13.6411C21.9501 10.7046 20.92 7.94544 19.05 5.87327ZM12.04 22.7608C10.56 22.7608 9.11005 22.3176 7.84005 21.4865L7.54005 21.2871L4.42005 22.1957L5.25005 18.8271L5.05005 18.4835C4.2276 17.0287 3.79097 15.3468 3.79005 13.63C3.79005 8.59922 7.49005 4.49922 12.03 4.49922C14.23 4.49922 16.3 5.45219 17.85 7.18084C18.6177 8.02729 19.226 9.0342 19.6397 10.1432C20.0534 11.2522 20.2642 12.4411 20.26 13.6411C20.2801 18.6719 16.58 22.7608 12.04 22.7608ZM16.56 15.9349C16.31 15.8019 15.09 15.1371 14.87 15.0373C14.64 14.9487 14.48 14.9044 14.31 15.1703C14.14 15.4473 13.67 16.0679 13.53 16.2452C13.39 16.4335 13.24 16.4557 12.99 16.3117C12.74 16.1787 11.94 15.8795 11 14.9487C10.26 14.2173 9.77005 13.3198 9.62005 13.0427C9.48005 12.7657 9.60005 12.6217 9.73005 12.4776C9.84005 12.3557 9.98005 12.1562 10.1 12.0011C10.22 11.846 10.27 11.7241 10.35 11.5468C10.43 11.3584 10.39 11.2033 10.33 11.0703C10.27 10.9373 9.77005 9.58544 9.57005 9.03138C9.37005 8.49949 9.16005 8.56598 9.01005 8.5549H8.53005C8.36005 8.5549 8.10005 8.62138 7.87005 8.89841C7.65005 9.17544 7.01005 9.8403 7.01005 11.1922C7.01005 12.5441 7.90005 13.8517 8.02005 14.029C8.14005 14.2173 9.77005 16.9876 12.25 18.1733C12.84 18.4614 13.3 18.6276 13.66 18.7495C14.25 18.96 14.79 18.9268 15.22 18.8603C15.7 18.7827 16.69 18.1954 16.89 17.5527C17.1 16.91 17.1 16.3671 17.03 16.2452C16.96 16.1233 16.81 16.0679 16.56 15.9349Z" fill="#EAE3DE"/>
</svg>
