<svg width="33" height="24" viewBox="0 0 33 24" fill="none" xmlns="http://www.w3.org/2000/svg">
<path d="M32.2712 3.74333C32.0819 3.01981 31.7127 2.36019 31.2003 1.83017C30.6879 1.30015 30.0502 0.918215 29.3507 0.7224C26.7898 0 16.4833 0 16.4833 0C16.4833 0 6.17618 0.0218666 3.61533 0.744267C2.91582 0.940093 2.27811 1.32205 1.76571 1.85209C1.25331 2.38214 0.884092 3.04178 0.694829 3.76533C-0.0797682 8.47173 -0.380249 15.6432 0.716099 20.1613C0.905381 20.8849 1.27461 21.5445 1.78701 22.0745C2.29941 22.6045 2.9371 22.9865 3.6366 23.1823C6.19745 23.9047 16.5043 23.9047 16.5043 23.9047C16.5043 23.9047 26.811 23.9047 29.3717 23.1823C30.0712 22.9865 30.7089 22.6045 31.2214 22.0745C31.7338 21.5445 32.103 20.8849 32.2923 20.1613C33.1093 15.4483 33.3611 8.2812 32.2712 3.74333Z" fill="#EAE3DE"/>
<path d="M13.2026 17.0747L21.7527 11.9523L13.2026 6.8299V17.0747Z" fill="#314E52"/>
</svg>
